<svg xmlns="http://www.w3.org/2000/svg" width="1123" height="794" stroke="none" stroke-linecap="round" stroke-linejoin="round" fill="#000" fill-rule="nonzero"><path d="M489.608 287.5666h180.0187v75.2802H564.8882v75.2804h104.7385v75.2802H489.608zm216.0212 0h180.0187v65.4605H780.9095v13.0931h104.7384v150.5605H705.6292V447.947h104.7384v-13.0931H705.6292zm216.0212 0h180.0187v65.4605H996.9307v13.0931h104.7384v150.5605H921.6504V447.947h104.7384v-13.0931H921.6504z"/><path d="M373.4605 587.0413L209.228 632.57 45.4458 587.1052 8.9488 177.74h401.0473z" fill="#fff"/><path d="M209.4725 597.7698l132.7069-36.7918 31.2247-349.7664H209.4725z" fill="#2965f1"/><path d="M209.4711 363.039H92.619l4.5006 50.2061h112.3515zm-.1715-101.6199H83.5774l4.5634 50.2062h121.3321v-50.2062zm-.0468 232.0708l-55.9151-15.0969-3.5763-40.0433h-27.1695-23.2293l7.034 78.8315 102.8465 28.5508.2311-.0626V493.432z" fill="#fff"/><path d="M280.0449 311.6253l-4.5681 51.4142H209.299v50.2062h61.8249l-5.8281 65.1139-55.9968 15.1147v52.2329l102.9251-28.5257.7569-8.4817 11.7982-132.1786 1.2227-13.4817 9.0674-101.6204H209.299v50.2062z"/></svg>
