<svg xmlns="http://www.w3.org/2000/svg" width="1096" height="366" stroke="none" stroke-linecap="round" stroke-linejoin="round" fill="#fff" fill-rule="evenodd"><g fill="#000" fill-rule="nonzero"><path d="M0 96.0112h58.1279v57.4118h53.1599V96.0112h58.1245v173.8693h-58.1245V211.756H58.1279v58.1245H0V96.0112zm245.8369 57.6673H194.571V96.0226h160.4707v57.6559h-51.1926v116.2248h-58.1245V153.6785zm134.6775-57.6673h60.6061l37.2831 61.1871 37.2407-61.1871h60.5248v173.8693h-57.8837v-86.191l-39.9746 61.8298h-.9991l-39.8313-61.8184v86.1911h-56.8618zm224.6551 0h58.128v116.5079h81.734v57.4737H605.181zM772.6785 0h322.6224l-29.3876 329.2632-132.1099 36.6289-131.7567-36.5784z"/><path d="M1040.7757 308.3059L1065.892 26.932H934.1076v310.9666z"/></g><path d="M880.5715 149.0706l-3.6939-41.3643h57.2296V67.3251H832.8448l10.8893 122.1382h90.3731v-40.3847zm-35.1417 60.5947l5.6578 63.4294 82.7332 22.9634.1856-.0504v-42.0151l-.1742.0504-44.8691-12.2367-2.877-32.2223h-21.852z" fill="#ebebeb" fill-rule="nonzero"/><path d="M1026.7633 159.9003l.9911-10.8503H933.873v40.3812h49.7329l-4.6896 52.3854-45.0433 12.1553v42.0151l82.8065-22.9439.6118-6.8311zm-92.7975-52.1917h97.5605l3.6206-40.4855H933.9658v40.2804z" fill-rule="nonzero"/></svg>