<svg xmlns="http://www.w3.org/2000/svg" width="1123" height="794" stroke="#000" stroke-linecap="round" stroke-linejoin="miter" fill="#fff" fill-rule="nonzero"><path d="M8.9488 324.894h58.1279v57.4118h53.16V324.894h58.1244v173.8693h-58.1244v-58.1245h-53.16v58.1245H8.9488V324.894zm245.8334 57.6674h-51.2624v-57.6559h160.4708v57.6559h-51.1927v116.2249h-58.1245V382.5614zm134.6809-57.6674h60.6063l37.283 61.1871 37.2407-61.1871h60.5248v173.8693h-57.8838v-86.191l-39.9745 61.8299h-.9991l-39.8313-61.8185v86.1911h-56.8618zm224.6587 0h58.1245v116.5079h81.7341v57.4737H614.1298z"/><path d="M781.6273 228.8828h322.6224l-29.3876 329.2632-132.1098 36.6289-131.7569-36.5784z" fill="#000"/><path d="M1049.7245 537.1886l25.1162-281.3738H943.0564v310.9666z" fill="#000"/><path d="M889.5203 377.9534l-3.6939-41.3608h57.2296v-40.3847H841.7936l10.8893 122.1382h90.3731v-40.3846zm-35.1417 60.5947l5.6578 63.4294 82.7332 22.9634.1855-.0505v-42.015l-.1741.0504-44.8692-12.2367-2.8769-32.2258h-21.852z" fill="#fff"/><path d="M1035.7121 388.7832l.9911-10.8503h-93.8814v40.3812h49.7329l-4.6896 52.3853-45.0433 12.1555v42.015l82.8065-22.9439.6118-6.831zm-92.7975-52.1917h97.5605l3.6206-40.4855H942.9146v40.2804z"/></svg>
