<?xml version="1.0" encoding="UTF-8" standalone="no" ?>
<!DOCTYPE svg PUBLIC "-//W3C//DTD SVG 1.1//EN" "http://www.w3.org/Graphics/SVG/1.1/DTD/svg11.dtd">
<svg xmlns="http://www.w3.org/2000/svg" xmlns:xlink="http://www.w3.org/1999/xlink" version="1.1" width="1080" height="1080" viewBox="0 0 1080 1080" xml:space="preserve">
<desc>Created with Fabric.js 5.2.4</desc>
<defs>
</defs>
<g transform="matrix(1 0 0 1 540 540)" id="a826f25c-5b59-46d4-aad1-547a6c38dfcc"  >
<rect style="stroke: none; stroke-width: 1; stroke-dasharray: none; stroke-linecap: butt; stroke-dashoffset: 0; stroke-linejoin: miter; stroke-miterlimit: 4; fill: rgb(255,255,255); fill-rule: nonzero; opacity: 1; visibility: hidden;" vector-effect="non-scaling-stroke"  x="-540" y="-540" rx="0" ry="0" width="1080" height="1080" />
</g>
<g transform="matrix(1 0 0 1 540 540)" id="c7acf86e-b435-4272-9fe0-ad671ba98452"  >
</g>
<g transform="matrix(1 0 0 1 540 540)"  >
<g style="" vector-effect="non-scaling-stroke"   >
		<g transform="matrix(0.13 0 0 -0.13 -530.56 0)"  >
<path style="stroke: none; stroke-width: 1; stroke-dasharray: none; stroke-linecap: butt; stroke-dashoffset: 0; stroke-linejoin: miter; stroke-miterlimit: 4; fill: rgb(255,255,255); fill-rule: nonzero; opacity: 1;" vector-effect="non-scaling-stroke"  transform=" translate(-2420, -1310)" d="M 0 1310 L 0 20 L 220 20 L 440 20 L 440 1031 C 440 1586 444 2039 449 2036 C 453 2033 821 1578 1266 1025 L 2074 20 L 3457 20 L 4840 20 L 4840 225 L 4840 430 L 3950 430 L 3060 430 L 3060 770 L 3060 1110 L 3775 1110 L 4490 1110 L 4490 1320 L 4490 1530 L 3775 1530 L 3060 1530 L 3060 1860 L 3060 2190 L 3950 2190 L 4840 2190 L 4840 2395 L 4840 2600 L 3725 2600 L 2610 2600 L 2608 1325 L 2605 51 L 1580 1325 L 555 2599 L 278 2600 L 0 2600 L 0 1310 z" stroke-linecap="round" />
</g>
		<g transform="matrix(0.13 0 0 -0.13 41 -0.08)"  >
<path style="stroke: none; stroke-width: 1; stroke-dasharray: none; stroke-linecap: butt; stroke-dashoffset: 0; stroke-linejoin: miter; stroke-miterlimit: 4; fill: rgb(255,255,255); fill-rule: nonzero; opacity: 1;" vector-effect="non-scaling-stroke"  transform=" translate(-6706.72, -1310.59)" d="M 5387 2588 C 5440 2519 7418 59 7434 42 C 7456 20 7456 20 7741 22 L 8027 25 L 7513 663 C 7231 1013 7000 1304 7000 1308 C 7000 1312 7229 1602 7510 1950 C 7790 2299 8020 2588 8020 2593 C 8020 2597 7893 2600 7737 2600 L 7454 2600 L 7094 2153 C 6897 1908 6728 1698 6720 1687 C 6705 1669 6684 1693 6330 2134 L 5955 2600 L 5666 2600 C 5437 2600 5380 2597 5387 2588 z" stroke-linecap="round" />
</g>
		<g transform="matrix(0.13 0 0 -0.13 430.11 0)"  >
<path style="stroke: none; stroke-width: 1; stroke-dasharray: none; stroke-linecap: butt; stroke-dashoffset: 0; stroke-linejoin: miter; stroke-miterlimit: 4; fill: rgb(255,255,255); fill-rule: nonzero; opacity: 1;" vector-effect="non-scaling-stroke"  transform=" translate(-9625, -1310)" d="M 8510 2395 L 8510 2190 L 8960 2190 L 9410 2190 L 9410 1105 L 9410 20 L 9630 20 L 9850 20 L 9852 1103 L 9855 2185 L 10298 2188 L 10740 2190 L 10740 2395 L 10740 2600 L 9625 2600 L 8510 2600 L 8510 2395 z" stroke-linecap="round" />
</g>
		<g transform="matrix(0.13 0 0 -0.13 797.67 96.67)"  >
<path style="stroke: none; stroke-width: 1; stroke-dasharray: none; stroke-linecap: butt; stroke-dashoffset: 0; stroke-linejoin: miter; stroke-miterlimit: 4; fill: rgb(255,255,255); fill-rule: nonzero; opacity: 1;" vector-effect="non-scaling-stroke"  transform=" translate(-12381.7, -584.97)" d="M 12293 1129 C 12083 1094 11953 922 12004 746 C 12037 633 12124 575 12350 515 C 12496 476 12548 453 12579 414 C 12624 357 12595 269 12518 228 C 12482 209 12460 205 12385 205 C 12258 205 12197 239 12167 326 L 12153 365 L 12059 365 L 11965 365 L 11968 325 C 11973 269 12011 190 12054 147 C 12193 8 12521 -7 12685 118 C 12780 191 12820 315 12787 431 C 12753 547 12655 614 12435 671 C 12369 688 12294 713 12269 726 C 12214 753 12185 804 12194 854 C 12201 893 12252 943 12299 959 C 12342 973 12445 972 12488 957 C 12532 941 12580 893 12587 859 L 12593 830 L 12686 830 L 12780 830 L 12780 863 C 12780 880 12769 918 12756 945 C 12690 1088 12499 1163 12293 1129 z" stroke-linecap="round" />
</g>
		<g transform="matrix(0.13 0 0 -0.13 672.75 97.59)"  >
<path style="stroke: none; stroke-width: 1; stroke-dasharray: none; stroke-linecap: butt; stroke-dashoffset: 0; stroke-linejoin: miter; stroke-miterlimit: 4; fill: rgb(255,255,255); fill-rule: nonzero; opacity: 1;" vector-effect="non-scaling-stroke"  transform=" translate(-11444.79, -578.05)" d="M 11590 713 C 11590 265 11590 262 11528 217 C 11493 191 11405 190 11363 215 C 11329 235 11300 278 11300 309 C 11300 329 11295 330 11200 330 C 11085 330 11086 331 11115 234 C 11145 131 11241 59 11372 41 C 11549 16 11698 88 11763 228 C 11784 273 11785 289 11788 698 L 11791 1120 L 11691 1120 L 11590 1120 L 11590 713 z" stroke-linecap="round" />
</g>
		<g transform="matrix(0.13 0 0 -0.13 -58.07 99.47)"  >
<path style="stroke: none; stroke-width: 1; stroke-dasharray: none; stroke-linecap: butt; stroke-dashoffset: 0; stroke-linejoin: miter; stroke-miterlimit: 4; fill: rgb(255,255,255); fill-rule: nonzero; opacity: 1;" vector-effect="non-scaling-stroke"  transform=" translate(-5963.65, -564)" d="M 5830 583 C 5596 293 5399 48 5392 38 C 5379 21 5391 20 5668 20 L 5957 20 L 6236 367 C 6389 558 6523 723 6532 735 C 6548 756 6545 761 6409 931 C 6333 1027 6267 1106 6262 1108 C 6258 1109 6063 873 5830 583 z" stroke-linecap="round" />
</g>
		<g transform="matrix(0.13 0 0 -0.13 591.6 154.08)"  >
<path style="stroke: none; stroke-width: 1; stroke-dasharray: none; stroke-linecap: butt; stroke-dashoffset: 0; stroke-linejoin: miter; stroke-miterlimit: 4; fill: rgb(255,255,255); fill-rule: nonzero; opacity: 1;" vector-effect="non-scaling-stroke"  transform=" translate(-10836.19, -154.38)" d="M 10795 256 C 10754 238 10730 209 10724 168 C 10712 99 10768 40 10846 40 C 10900 40 10950 93 10950 149 C 10950 200 10926 238 10883 256 C 10844 273 10833 273 10795 256 z" stroke-linecap="round" />
</g>
</g>
</g>
</svg>