<svg xmlns="http://www.w3.org/2000/svg" xmlns:xlink="http://www.w3.org/1999/xlink" version="1.1" width="1000" height="1000" viewBox="0 0 1000 1000" xml:space="preserve">
<desc>Created with Fabric.js 3.5.0</desc>
<defs>
</defs>
<rect x="0" y="0" width="100%" height="100%" fill="rgba(255,255,204,0)"/>
<g transform="matrix(0.8905 0 0 0.8905 175.7682 499.6997)" id="719283">
<path style="stroke: rgb(0,0,0); stroke-opacity: 0; stroke-width: 1; stroke-dasharray: none; stroke-linecap: round; stroke-dashoffset: 0; stroke-linejoin: round; stroke-miterlimit: 4; is-custom-font: none; font-file-url: none; fill: rgb(255,255,255); fill-rule: evenodd; opacity: 1;" transform=" translate(-188.433, -113.0767)" d="M 94.2186 75.3881 C 106.7734 25.129 138.19 0 188.4383 0 c 75.3882 0 84.7921 56.5144 122.4758 65.9507 c 25.1291 6.2887 47.1094 -3.1271 65.9518 -28.2561 c -12.5548 50.2472 -43.9714 75.3772 -94.209 75.3772 c -75.388 0 -84.793 -56.5143 -122.4758 -65.9517 c -25.13 -6.2876 -47.1093 3.1282 -65.9506 28.2572 z M 0 188.4588 c 12.5753 -50.258 43.9606 -75.387 94.2186 -75.387 c 75.3893 0 84.7932 56.5144 122.4769 65.9508 c 25.1291 6.2876 47.1094 -3.1272 65.953 -28.2572 c -12.556 50.259 -43.9726 75.388 -94.2209 75.388 c -75.3881 0 -84.7931 -56.5144 -122.4769 -65.9506 c -25.1291 -6.2878 -47.1093 3.127 -65.9507 28.256 z" stroke-linecap="round"/>
</g>
<g transform="matrix(0.8905 0 0 0.8905 688.7642 499.6786)" id="840942">
<path style="stroke: none; stroke-width: 1; stroke-dasharray: none; stroke-linecap: round; stroke-dashoffset: 0; stroke-linejoin: round; stroke-miterlimit: 4; is-custom-font: none; font-file-url: none; fill: rgb(255,255,255); fill-rule: evenodd; opacity: 1;" transform=" translate(-773.4713, -396.6377)" d="M 454.4073 370.5322 h -24.6647 v -14.7749 h 66.5453 v 14.7749 h -24.655 v 67.0193 h -17.2256 z m 74.0954 59.4584 c -2.2821 2.6004 -4.9796 4.8048 -7.981 6.5246 c -2.9343 1.6826 -6.7422 2.525 -11.4108 2.525 a 27.641 27.641 0 0 1 -7.6256 -1.0363 c -2.4161 -0.6894 -4.5295 -1.7569 -6.3199 -3.2025 s -3.2359 -3.2897 -4.2927 -5.5551 s -1.6178 -4.9401 -1.6178 -8.0887 c 0 -4.1193 0.9167 -7.4845 2.7608 -10.0838 c 1.849 -2.61 4.3369 -4.7018 7.2259 -6.0722 c 2.9774 -1.4563 6.321 -2.4807 10.0309 -3.0958 a 90.985 90.985 0 0 1 11.3128 -1.1429 l 7.6794 -0.3448 v -2.9773 c 0 -3.6668 -1.0029 -6.1907 -3.0409 -7.549 s -4.422 -2.05 -7.1624 -2.05 c -6.362 0 -9.9857 2.4054 -10.8927 7.2269 l -14.6672 -1.3701 c 1.0567 -6.2553 3.8176 -10.785 8.2503 -13.589 s 10.4079 -4.1849 17.9031 -4.1849 c 4.5835 0 8.4883 0.5386 11.7017 1.6611 s 5.8028 2.6973 7.7451 4.7461 c 1.989 2.1303 3.4466 4.7032 4.2485 7.506 c 0.8844 2.9331 1.3163 6.2552 1.3163 9.922 v 37.8013 h -15.1638 v -7.549 z m -0.3458 -19.1333 l -7.1181 0.3459 c -3.3652 0.14 -6.0819 0.4965 -8.1426 1.0351 s -3.6668 1.2086 -4.7451 2.0058 s -1.8657 1.7256 -2.2331 2.805 s -0.5708 2.2643 -0.5708 3.5591 c 0 1.9842 0.6894 3.559 2.0488 4.6912 s 3.2887 1.7257 5.7157 1.7257 c 4.1407 0 7.5059 -0.9491 10.0955 -2.8697 c 1.4553 -1.0772 2.6521 -2.4366 3.5591 -4.0653 s 1.3691 -3.6895 1.3691 -6.1261 v -3.0948 z m 28.5373 -33.1099 h 16.0697 v 59.7933 h -16.0697 z m -0.2154 -22.0019 h 16.5016 v 14.4302 h -16.5016 z m 30.0259 0 h 16.0697 v 81.7952 h -16.0697 z m 23.2644 22.0019 h 17.4281 l 8.3806 39.6357 l 11.4528 -39.0638 h 13.9993 l 10.785 39.1822 l 8.3806 -39.6357 h 16.7494 l -17.4399 59.7934 h -15.6054 l -10.6783 -39.4094 l -10.7849 39.4094 h -15.25 l -17.4292 -59.7934 z m 94.4771 0 h 16.0698 v 59.7933 h -16.0698 z m -0.2154 -22.0019 h 16.5006 v 14.4302 h -16.5006 z m 29.9182 22.0019 h 15.6055 v 8.2513 c 2.373 -3.5063 5.177 -6.0722 8.4129 -7.6794 s 6.6324 -2.4053 10.1375 -2.4053 c 6.8166 0 11.8633 1.7795 15.1542 5.3277 s 4.9389 9.1466 4.9389 16.7818 v 39.5172 h -16.0589 v -37.3272 c 0 -4.3153 -0.7993 -7.0654 -2.4162 -8.596 s -3.7422 -2.287 -6.4169 -2.287 c -2.0499 0 -3.8402 0.3242 -5.3386 0.9167 s -2.8912 1.4887 -4.186 2.6327 c -1.0772 1.0772 -1.9723 2.3504 -2.6951 3.8391 c -0.7241 1.5176 -1.0915 3.181 -1.0794 4.8636 v 35.9689 h -16.1774 v -59.7934 z m 108.7135 51.8985 c -4.0917 6.2422 -11.1201 9.9258 -18.5828 9.739 c -8.4118 0 -14.6672 -2.8266 -18.8198 -8.4776 s -6.1908 -13.4811 -6.1908 -23.4798 a 42.991 42.991 0 0 1 1.7903 -12.7691 c 1.1861 -3.8607 2.8795 -7.1828 5.1017 -9.9652 c 2.1805 -2.7537 4.9676 -4.9688 8.1426 -6.4708 c 3.2359 -1.5102 6.8488 -2.287 10.8927 -2.287 c 2.9774 0 5.9322 0.5398 8.8772 1.6181 s 5.7156 3.2348 8.3258 6.1906 v -27.9555 h 16.0697 v 81.7953 h -15.5959 v -7.9056 z m -0.3447 -22.6805 c 0 -3.8186 -0.3242 -6.8715 -1.0783 -9.168 s -1.7052 -4.1516 -3.1498 -5.6091 c -1.3798 -1.3691 -2.8901 -2.1565 -4.5296 -2.6951 c -1.5869 -0.4164 -3.2228 -0.6258 -4.8635 -0.6258 c -1.7185 -0.0084 -3.4191 0.3457 -4.994 1.0351 s -2.9332 1.7569 -4.1311 3.2025 s -2.1242 3.3652 -2.8039 5.7168 s -1.0352 5.1769 -1.0352 8.4775 c 0 3.5806 0.3243 6.5785 1.0783 8.9936 s 1.5425 4.3584 2.6963 5.846 s 2.4808 2.5561 4.0125 3.2036 s 3.181 1.0783 4.9401 1.0783 c 3.8176 0 6.9555 -1.1107 9.404 -3.3221 c 1.5438 -1.5607 2.6999 -3.4635 3.3759 -5.5541 c 0.711 -2.1781 1.0783 -4.9831 1.0783 -8.4119 v -2.0499 z m 125.5609 2.2858 c -0.3888 4.3574 -1.4025 8.3796 -3.042 12.0798 c -1.5917 3.6238 -3.8917 6.8933 -6.7616 9.6194 a 30.086 30.086 0 0 1 -10.5598 6.3523 c -4.1623 1.5102 -8.9936 2.2868 -14.5057 2.2868 c -6.1906 0 -11.6477 -1.0351 -16.3508 -3.0958 c -4.5537 -1.9508 -8.5961 -4.9306 -11.8083 -8.7027 c -3.182 -3.7433 -5.5659 -8.2719 -7.172 -13.59 s -2.4054 -11.1728 -2.4054 -17.58 c 0 -6.642 0.8628 -12.5968 2.6316 -17.8697 s 4.2927 -9.7724 7.5717 -13.5135 s 7.2679 -6.6119 11.9278 -8.5972 s 9.9544 -2.9762 15.8543 -2.9762 c 5.1975 0 9.7379 0.6473 13.5889 1.9411 s 7.1182 3.1713 9.7606 5.6089 s 4.7451 5.3925 6.3641 8.8223 a 46.564 46.564 0 0 1 3.5472 11.5724 l -16.9864 2.1781 c -0.8412 -4.8108 -2.4797 -8.595 -4.8539 -11.3461 s -6.2327 -4.1193 -11.4323 -4.1193 c -6.5785 0 -11.5724 2.4593 -14.9581 7.3875 s -5.1232 11.8848 -5.1232 20.902 c 0 9.0917 1.8334 16.1775 5.4571 20.9667 a 17.259 17.259 0 0 0 14.6242 7.3336 c 5.2858 0 9.168 -1.3594 11.6488 -4.0664 s 4.0223 -6.5796 4.6374 -11.6274 z m 24.9879 1.618 c 0.3781 5.0359 2.0069 8.7027 4.8539 11.0004 s 7.0869 3.4513 12.6733 3.4513 c 2.6736 0 4.939 -0.2919 6.7724 -0.8639 s 3.322 -1.3357 4.4758 -2.2858 c 1.102 -0.8904 1.9494 -2.0537 2.4592 -3.3749 a 11.653 11.653 0 0 0 0.7443 -4.2388 c 0 -2.1576 -0.7874 -4.1526 -2.3935 -6.0184 s -4.5523 -3.2358 -8.845 -4.0653 l -10.6771 -1.9421 c -4.3142 -0.7552 -7.9164 -1.7581 -11.1308 -2.9764 s -5.9095 -2.804 -8.0876 -4.7461 s -3.8402 -4.3347 -4.9832 -7.1613 s -1.7256 -6.1896 -1.7256 -10.0837 c -0.0695 -3.5771 0.7371 -7.117 2.3504 -10.311 c 1.5592 -2.962 3.7995 -5.5122 6.5365 -7.4413 c 2.804 -1.9842 6.1475 -3.4944 10.0309 -4.5297 s 8.1964 -1.5425 12.8553 -1.5425 c 5.9645 0 10.9358 0.6906 14.9161 2.0489 s 7.1936 3.1821 9.6409 5.4474 s 4.2604 4.8527 5.4474 7.8506 s 1.9734 6.0722 2.3731 9.2759 l -16.1785 2.0488 c -0.8402 -4.5081 -2.4592 -7.7656 -4.8528 -9.739 s -6.0614 -2.9763 -10.9584 -2.9763 c -2.9116 0 -5.2847 0.2488 -7.1709 0.754 s -3.3878 1.144 -4.5307 1.9411 c -1.0531 0.6893 -1.8908 1.6621 -2.4151 2.8051 c -0.4546 1.0783 -0.6916 2.1791 -0.6916 3.3221 c 0 3.0517 0.8639 5.3493 2.5896 6.8693 s 4.6363 2.7188 8.7674 3.5601 l 11.2385 2.1782 c 8.8761 1.7579 15.3792 4.605 19.5221 8.5206 s 6.1896 9.7067 6.1896 17.0079 c 0 3.5796 -0.6679 6.9017 -2.0058 9.9222 c -1.3703 3.0516 -3.4131 5.7539 -5.9753 7.9056 a 28.007 28.007 0 0 1 -9.9113 5.2739 c -3.9684 1.2615 -8.6283 1.8873 -13.9992 1.8873 c -11.1739 0 -19.7151 -2.372 -25.6364 -7.1612 s -9.124 -11.8633 -9.7067 -21.5915 h 17.3214 z m 74.4175 0 c 0.3781 5.0359 2.0069 8.7027 4.8539 11.0004 s 7.1192 3.4513 12.6733 3.4513 c 2.6962 0 4.939 -0.2919 6.795 -0.8639 s 3.3221 -1.3357 4.4747 -2.2858 c 1.1021 -0.8904 1.9494 -2.0537 2.4592 -3.3749 a 11.653 11.653 0 0 0 0.7444 -4.2388 c -0.0324 -2.2331 -0.8891 -4.3776 -2.4054 -6.0184 c -1.618 -1.8656 -4.5501 -3.2358 -8.8438 -4.0653 l -10.6773 -1.9421 c -4.3131 -0.7552 -7.9163 -1.7581 -11.1297 -2.9764 s -5.9105 -2.804 -8.0887 -4.7461 s -3.8402 -4.3347 -4.9939 -7.1613 s -1.7257 -6.1896 -1.7257 -10.0837 c -0.0717 -3.5771 0.7372 -7.117 2.3505 -10.311 c 1.5749 -2.9762 3.754 -5.4678 6.5365 -7.549 s 6.1475 -3.4945 10.0309 -4.5297 s 8.1964 -1.5425 12.8553 -1.5425 c 5.9645 0 10.9358 0.6894 14.916 2.0488 s 7.1828 3.181 9.641 5.4464 s 4.2722 4.8538 5.4474 7.8517 s 1.9734 6.0722 2.3731 9.2759 l -16.1785 2.0488 c -0.8402 -4.5081 -2.4592 -7.7656 -4.8539 -9.739 s -6.0603 -2.9764 -10.9573 -2.9764 c -2.9116 0 -5.2847 0.2477 -7.1709 0.7541 s -3.3878 1.144 -4.5307 1.9411 c -1.0531 0.6893 -1.8908 1.6621 -2.4151 2.805 c -0.4643 1.0794 -0.6916 2.1792 -0.6916 3.3221 c 0 3.0518 0.8639 5.3494 2.5896 6.8704 s 4.6373 2.7178 8.7792 3.5591 l 11.3451 2.2642 c 8.8762 1.7581 15.3803 4.6052 19.5211 8.5197 s 6.1907 9.7077 6.1907 17.0091 c 0.0383 3.4071 -0.6451 6.7855 -2.0057 9.9112 a 22.109 22.109 0 0 1 -5.9753 7.9056 c -2.6316 2.2654 -5.9311 4.0116 -9.9221 5.2849 s -8.6284 1.8872 -13.9886 1.8872 c -11.1728 0 -19.715 -2.372 -25.6471 -7.1613 s -9.124 -11.8643 -9.5774 -21.5914 z" stroke-linecap="round"/>
</g>
</svg>