<svg xmlns="http://www.w3.org/2000/svg" width="1123" height="794" stroke="#000" stroke-linecap="round" stroke-linejoin="round" fill="#fff" fill-rule="evenodd"><defs><linearGradient x1="0.00%" y1="-88.87%" y2="188.86%" id="A" x2="100.00%"><stop stop-color="#fff" offset="0%"/><stop stop-color="#fff" offset="100%"/></linearGradient></defs><g stroke="none"><path d="M94.2186 75.3881C106.7734 25.129 138.19 0 188.4383 0c75.3882 0 84.7921 56.5144 122.4758 65.9507 25.1291 6.2887 47.1094-3.1271 65.9518-28.2561-12.5548 50.2472-43.9714 75.3772-94.209 75.3772-75.388 0-84.793-56.5143-122.4758-65.9517-25.13-6.2876-47.1093 3.1282-65.9506 28.2572zM0 188.4588c12.5753-50.258 43.9606-75.387 94.2186-75.387 75.3893 0 84.7932 56.5144 122.4769 65.9508 25.1291 6.2876 47.1094-3.1272 65.953-28.2572-12.556 50.259-43.9726 75.388-94.2209 75.388-75.3881 0-84.7931-56.5144-122.4769-65.9506-25.1291-6.2878-47.1093 3.127-65.9507 28.256z" fill="url(#A)" transform="translate(8.9488 283.5824)"/><path d="M454.4073 370.5322h-24.6647v-14.7749h66.5453v14.7749h-24.655v67.0193h-17.2256zm74.0954 59.4584c-2.2821 2.6004-4.9796 4.8048-7.981 6.5246-2.9343 1.6826-6.7422 2.525-11.4108 2.525a27.641 27.641 0 0 1-7.6256-1.0363c-2.4161-.6894-4.5295-1.7569-6.3199-3.2025s-3.2359-3.2897-4.2927-5.5551-1.6178-4.9401-1.6178-8.0887c0-4.1193.9167-7.4845 2.7608-10.0838 1.849-2.61 4.3369-4.7018 7.2259-6.0722 2.9774-1.4563 6.321-2.4807 10.0309-3.0958a90.985 90.985 0 0 1 11.3128-1.1429l7.6794-.3448v-2.9773c0-3.6668-1.0029-6.1907-3.0409-7.549s-4.422-2.05-7.1624-2.05c-6.362 0-9.9857 2.4054-10.8927 7.2269l-14.6672-1.3701c1.0567-6.2553 3.8176-10.785 8.2503-13.589s10.4079-4.1849 17.9031-4.1849c4.5835 0 8.4883.5386 11.7017 1.6611s5.8028 2.6973 7.7451 4.7461c1.989 2.1303 3.4466 4.7032 4.2485 7.506.8844 2.9331 1.3163 6.2552 1.3163 9.922v37.8013h-15.1638v-7.549zm-.3458-19.1333l-7.1181.3459c-3.3652.14-6.0819.4965-8.1426 1.0351s-3.6668 1.2086-4.7451 2.0058-1.8657 1.7256-2.2331 2.805-.5708 2.2643-.5708 3.5591c0 1.9842.6894 3.559 2.0488 4.6912s3.2887 1.7257 5.7157 1.7257c4.1407 0 7.5059-.9491 10.0955-2.8697 1.4553-1.0772 2.6521-2.4366 3.5591-4.0653s1.3691-3.6895 1.3691-6.1261v-3.0948zm28.5373-33.1099h16.0697v59.7933h-16.0697zm-.2154-22.0019h16.5016v14.4302h-16.5016zm30.0259 0h16.0697v81.7952h-16.0697zm23.2644 22.0019h17.4281l8.3806 39.6357 11.4528-39.0638h13.9993l10.785 39.1822 8.3806-39.6357h16.7494l-17.4399 59.7934h-15.6054l-10.6783-39.4094-10.7849 39.4094h-15.25l-17.4292-59.7934zm94.4771 0h16.0698v59.7933h-16.0698zm-.2154-22.0019h16.5006v14.4302h-16.5006zm29.9182 22.0019h15.6055v8.2513c2.373-3.5063 5.177-6.0722 8.4129-7.6794s6.6324-2.4053 10.1375-2.4053c6.8166 0 11.8633 1.7795 15.1542 5.3277s4.9389 9.1466 4.9389 16.7818v39.5172h-16.0589v-37.3272c0-4.3153-.7993-7.0654-2.4162-8.596s-3.7422-2.287-6.4169-2.287c-2.0499 0-3.8402.3242-5.3386.9167s-2.8912 1.4887-4.186 2.6327c-1.0772 1.0772-1.9723 2.3504-2.6951 3.8391-.7241 1.5176-1.0915 3.181-1.0794 4.8636v35.9689h-16.1774v-59.7934zm108.7135 51.8985c-4.0917 6.2422-11.1201 9.9258-18.5828 9.739-8.4118 0-14.6672-2.8266-18.8198-8.4776s-6.1908-13.4811-6.1908-23.4798a42.991 42.991 0 0 1 1.7903-12.7691c1.1861-3.8607 2.8795-7.1828 5.1017-9.9652 2.1805-2.7537 4.9676-4.9688 8.1426-6.4708 3.2359-1.5102 6.8488-2.287 10.8927-2.287 2.9774 0 5.9322.5398 8.8772 1.6181s5.7156 3.2348 8.3258 6.1906v-27.9555h16.0697v81.7953h-15.5959v-7.9056zm-.3447-22.6805c0-3.8186-.3242-6.8715-1.0783-9.168s-1.7052-4.1516-3.1498-5.6091c-1.3798-1.3691-2.8901-2.1565-4.5296-2.6951-1.5869-.4164-3.2228-.6258-4.8635-.6258-1.7185-.0084-3.4191.3457-4.994 1.0351s-2.9332 1.7569-4.1311 3.2025-2.1242 3.3652-2.8039 5.7168-1.0352 5.1769-1.0352 8.4775c0 3.5806.3243 6.5785 1.0783 8.9936s1.5425 4.3584 2.6963 5.846 2.4808 2.5561 4.0125 3.2036 3.181 1.0783 4.9401 1.0783c3.8176 0 6.9555-1.1107 9.404-3.3221 1.5438-1.5607 2.6999-3.4635 3.3759-5.5541.711-2.1781 1.0783-4.9831 1.0783-8.4119v-2.0499zm125.5609 2.2858c-.3888 4.3574-1.4025 8.3796-3.042 12.0798-1.5917 3.6238-3.8917 6.8933-6.7616 9.6194a30.086 30.086 0 0 1-10.5598 6.3523c-4.1623 1.5102-8.9936 2.2868-14.5057 2.2868-6.1906 0-11.6477-1.0351-16.3508-3.0958-4.5537-1.9508-8.5961-4.9306-11.8083-8.7027-3.182-3.7433-5.5659-8.2719-7.172-13.59s-2.4054-11.1728-2.4054-17.58c0-6.642.8628-12.5968 2.6316-17.8697s4.2927-9.7724 7.5717-13.5135 7.2679-6.6119 11.9278-8.5972 9.9544-2.9762 15.8543-2.9762c5.1975 0 9.7379.6473 13.5889 1.9411s7.1182 3.1713 9.7606 5.6089 4.7451 5.3925 6.3641 8.8223a46.564 46.564 0 0 1 3.5472 11.5724l-16.9864 2.1781c-.8412-4.8108-2.4797-8.595-4.8539-11.3461s-6.2327-4.1193-11.4323-4.1193c-6.5785 0-11.5724 2.4593-14.9581 7.3875s-5.1232 11.8848-5.1232 20.902c0 9.0917 1.8334 16.1775 5.4571 20.9667a17.259 17.259 0 0 0 14.6242 7.3336c5.2858 0 9.168-1.3594 11.6488-4.0664s4.0223-6.5796 4.6374-11.6274zm24.9879 1.618c.3781 5.0359 2.0069 8.7027 4.8539 11.0004s7.0869 3.4513 12.6733 3.4513c2.6736 0 4.939-.2919 6.7724-.8639s3.322-1.3357 4.4758-2.2858c1.102-.8904 1.9494-2.0537 2.4592-3.3749a11.653 11.653 0 0 0 .7443-4.2388c0-2.1576-.7874-4.1526-2.3935-6.0184s-4.5523-3.2358-8.845-4.0653l-10.6771-1.9421c-4.3142-.7552-7.9164-1.7581-11.1308-2.9764s-5.9095-2.804-8.0876-4.7461-3.8402-4.3347-4.9832-7.1613-1.7256-6.1896-1.7256-10.0837c-.0695-3.5771.7371-7.117 2.3504-10.311 1.5592-2.962 3.7995-5.5122 6.5365-7.4413 2.804-1.9842 6.1475-3.4944 10.0309-4.5297s8.1964-1.5425 12.8553-1.5425c5.9645 0 10.9358.6906 14.9161 2.0489s7.1936 3.1821 9.6409 5.4474 4.2604 4.8527 5.4474 7.8506 1.9734 6.0722 2.3731 9.2759l-16.1785 2.0488c-.8402-4.5081-2.4592-7.7656-4.8528-9.739s-6.0614-2.9763-10.9584-2.9763c-2.9116 0-5.2847.2488-7.1709.754s-3.3878 1.144-4.5307 1.9411c-1.0531.6893-1.8908 1.6621-2.4151 2.8051-.4546 1.0783-.6916 2.1791-.6916 3.3221 0 3.0517.8639 5.3493 2.5896 6.8693s4.6363 2.7188 8.7674 3.5601l11.2385 2.1782c8.8761 1.7579 15.3792 4.605 19.5221 8.5206s6.1896 9.7067 6.1896 17.0079c0 3.5796-.6679 6.9017-2.0058 9.9222-1.3703 3.0516-3.4131 5.7539-5.9753 7.9056a28.007 28.007 0 0 1-9.9113 5.2739c-3.9684 1.2615-8.6283 1.8873-13.9992 1.8873-11.1739 0-19.7151-2.372-25.6364-7.1612s-9.124-11.8633-9.7067-21.5915h17.3214zm74.4175 0c.3781 5.0359 2.0069 8.7027 4.8539 11.0004s7.1192 3.4513 12.6733 3.4513c2.6962 0 4.939-.2919 6.795-.8639s3.3221-1.3357 4.4747-2.2858c1.1021-.8904 1.9494-2.0537 2.4592-3.3749a11.653 11.653 0 0 0 .7444-4.2388c-.0324-2.2331-.8891-4.3776-2.4054-6.0184-1.618-1.8656-4.5501-3.2358-8.8438-4.0653l-10.6773-1.9421c-4.3131-.7552-7.9163-1.7581-11.1297-2.9764s-5.9105-2.804-8.0887-4.7461-3.8402-4.3347-4.9939-7.1613-1.7257-6.1896-1.7257-10.0837c-.0717-3.5771.7372-7.117 2.3505-10.311 1.5749-2.9762 3.754-5.4678 6.5365-7.549s6.1475-3.4945 10.0309-4.5297 8.1964-1.5425 12.8553-1.5425c5.9645 0 10.9358.6894 14.916 2.0488s7.1828 3.181 9.641 5.4464 4.2722 4.8538 5.4474 7.8517 1.9734 6.0722 2.3731 9.2759l-16.1785 2.0488c-.8402-4.5081-2.4592-7.7656-4.8539-9.739s-6.0603-2.9764-10.9573-2.9764c-2.9116 0-5.2847.2477-7.1709.7541s-3.3878 1.144-4.5307 1.9411c-1.0531.6893-1.8908 1.6621-2.4151 2.805-.4643 1.0794-.6916 2.1792-.6916 3.3221 0 3.0518.8639 5.3494 2.5896 6.8704s4.6373 2.7178 8.7792 3.5591l11.3451 2.2642c8.8762 1.7581 15.3803 4.6052 19.5211 8.5197s6.1907 9.7077 6.1907 17.0091c.0383 3.4071-.6451 6.7855-2.0057 9.9112a22.109 22.109 0 0 1-5.9753 7.9056c-2.6316 2.2654-5.9311 4.0116-9.9221 5.2849s-8.6284 1.8872-13.9886 1.8872c-11.1728 0-19.715-2.372-25.6471-7.1613s-9.124-11.8643-9.5774-21.5914z"/></g></svg>
